:version 1.10
:name ASF
:units
  mass 1
  length 1
  angle deg
:documentation
  ASF file generated by Kaydara
:root
  axis xyz
  order  tx ty tz rx ry rz
  position 0 0 0
  orientation 0 0 0
:bonedata
  begin
    id 1
    name RightUpLegDummy
    direction -0.718183 -0.695806 0.00816078
    length 4.904
    axis 0 0 0 xyz
  end
  begin
    id 2
    name RightUpLeg
    direction 3.53989e-006 -0.995788 0.0916897
    length 17.4976
    axis -3.49089 -0.000906621 0.000287158 xyz
    dof rx ry rz
  end
  begin
    id 3
    name RightLeg
    direction 0.00371093 -0.995096 -0.0988418
    length 16.5821
    axis 3.68512 0.0193738 -0.131023 xyz
    dof rx ry rz
  end
  begin
    id 4
    name RightFoot
    direction 0.000791514 -0.46099 0.887405
    length 3.77069
    axis 4.84075e-005 -0.120479 -0.188788 xyz
    dof rx ry rz
  end
  begin
    id 5
    name RightToes
    direction 0.00124746 -0.014064 0.9999
    length 3.85082
    axis 0.00048216 0.542163 -0.142577 xyz
    dof rx ry rz
  end
  begin
    id 6
    name SpineDummy
    direction 8.36599e-015 1 5.97571e-016
    length 4.6813
    axis 0 0 0 xyz
  end
  begin
    id 7
    name Spine
    direction -4.63632e-008 0.999988 0.00495137
    length 10.1015
    axis -0.00138897 0.000121419 3.25764e-006 xyz
    dof rx ry rz
  end
  begin
    id 8
    name Spine1
    direction 0 0 0
    length 0
    axis -0.00138896 0.000121452 2.39764e-006 xyz
    dof rx ry rz
  end
  begin
    id 9
    name HEadDummy
    direction -3.91456e-008 0.999999 0.00127422
    length 3.43865
    axis -0.00138896 0.000121452 2.39764e-006 xyz
  end
  begin
    id 10
    name HEad
    direction -0.0222688 0.980941 0.193023
    length 5.12695
    axis -0.00138895 0.000121452 2.39764e-006 xyz
    dof rx ry rz
  end
  begin
    id 11
    name LeftShoulder1Dummy
    direction 0.998891 -0.0402508 -0.0244456
    length 3.5433
    axis -0.00138896 0.000121452 2.39764e-006 xyz
  end
  begin
    id 12
    name LeftShoulder1
    direction 0.99951 -0.000327743 0.0313091
    length 4.05031
    axis -0.00138896 0.000121452 2.39764e-006 xyz
    dof rx ry rz
  end
  begin
    id 13
    name LeftArm
    direction 0.998561 -0.00100054 -0.0536182
    length 10.3537
    axis -23.1894 0.134784 0.96751 xyz
    dof rx ry rz
  end
  begin
    id 14
    name LeftForeArm
    direction 0.998903 0.00866434 0.046012
    length 8.70632
    axis -9.91835 -0.06569 -0.177792 xyz
    dof rx ry rz
  end
  begin
    id 15
    name LeftHand
    direction 0.992938 -0.0411636 0.11126
    length 5.32135
    axis -0.00960227 -0.00340091 0.185174 xyz
    dof rx ry rz
  end
  begin
    id 16
    name RightShoulderDummy
    direction -0.998891 -0.0402509 -0.0244414
    length 3.5433
    axis -0.00138896 0.000121452 2.39764e-006 xyz
  end
  begin
    id 17
    name RightShoulder
    direction -0.99951 -0.000327827 0.0313133
    length 4.05031
    axis 0.215806 0.000203644 -0.00680151 xyz
    dof rx ry rz
  end
  begin
    id 18
    name RightArm
    direction -0.998573 -0.000999583 -0.053403
    length 10.3947
    axis -23.2009 -0.134239 -0.9641 xyz
    dof rx ry rz
  end
  begin
    id 19
    name RightForeArm
    direction -0.998898 0.00868026 0.0461306
    length 8.68355
    axis -9.92322 0.0658061 0.178869 xyz
    dof rx ry rz
  end
  begin
    id 20
    name RightHand
    direction -0.992843 -0.0414603 0.112003
    length 5.28593
    axis -0.00960634 0.00330671 -0.185226 xyz
    dof rx ry rz
  end
  begin
    id 21
    name LeftUpLegDummy
    direction 0.718183 -0.695806 0.00816078
    length 4.904
    axis 0 0 0 xyz
  end
  begin
    id 22
    name LeftUpLeg
    direction -6.8115e-006 -0.995793 0.0916336
    length 17.4976
    axis -3.48766 0.00143441 -0.000523914 xyz
    dof rx ry rz
  end
  begin
    id 23
    name LeftLeg
    direction -0.00601357 -0.995091 -0.0987824
    length 16.5821
    axis 3.68177 -0.00654038 -0.00028478 xyz
    dof rx ry rz
  end
  begin
    id 24
    name LeftFoot
    direction -0.00417578 -0.460984 0.887399
    length 3.77069
    axis 1.87232e-006 4.66002e-005 -8.1837e-006 xyz
    dof rx ry rz
  end
  begin
    id 25
    name LeftToes
    direction 0.00818058 -0.00485161 0.999955
    length 3.85048
    axis 1.06246e-005 4.65855e-005 -8.18502e-006 xyz
    dof rx ry rz
  end
:hierarchy
  begin
    root RightUpLegDummy SpineDummy LeftUpLegDummy
    RightUpLegDummy RightUpLeg
    RightUpLeg RightLeg
    RightLeg RightFoot
    RightFoot RightToes
    SpineDummy Spine
    Spine Spine1
    Spine1 HEadDummy LeftShoulder1Dummy RightShoulderDummy
    HEadDummy HEad
    LeftShoulder1Dummy LeftShoulder1
    LeftShoulder1 LeftArm
    LeftArm LeftForeArm
    LeftForeArm LeftHand
    RightShoulderDummy RightShoulder
    RightShoulder RightArm
    RightArm RightForeArm
    RightForeArm RightHand
    LeftUpLegDummy LeftUpLeg
    LeftUpLeg LeftLeg
    LeftLeg LeftFoot
    LeftFoot LeftToes
  end

:SAMPLES-PER-SECOND 30
:FULLY-SPECIFIED
:DEGREES
1
root  20.6248 65.7158 48.2173 6.69521 -0.730274 1.35585
RightUpLeg  -18.6883 3.75059 3.28046
RightLeg  44.4053 -7.18768 -7.78745
RightFoot  -30.2439 0.0229126 1.37263
RightToes  -3.07117 0.00143587 -0.0288407
Spine  -6.59021 1.27469 -0.946423
Spine1  4.554 0.231962 4.72438
HEad  41.2114 -2.81591 -7.00974
LeftShoulder1  -7.76503e-019 -2.42657e-020 -1.34036e-021
LeftArm  -14.6444 21.9968 -80.8136
LeftForeArm  16.6402 -32.4009 -6.20272
LeftHand  5.84812 49.8545 14.3045
RightShoulder  7.45443e-017 -2.42657e-020 1.96277e-018
RightArm  -18.7478 -22.7721 79.1778
RightForeArm  29.201 27.0341 4.24765
RightHand  -4.19534 23.4182 -17.1191
LeftUpLeg  -21.6315 1.70352 -5.068
LeftLeg  44.8055 9.97025 10.8284
LeftFoot  -23.4125 -0.0266763 -1.58152
LeftToes  -17.4061 1.06988e-006 1.21085e-007
2
root  20.5312 65.7233 47.9382 7.1944 0.26151 1.87792
RightUpLeg  -19.6267 3.59167 3.07516
RightLeg  44.5373 -7.88957 -8.5405
RightFoot  -30.2709 0.0466436 1.51414
RightToes  -1.82807 0.00244062 -0.0172217
Spine  -6.11359 0.745242 -1.23585
Spine1  4.11648 0.0907899 4.73202
HEad  39.9808 -3.7258 -6.91924
LeftShoulder1  -7.76503e-019 -2.42657e-020 -1.34036e-021
LeftArm  -17.5811 20.6576 -79.2963
LeftForeArm  19.7014 -31.8117 -5.87893
LeftHand  4.82324 49.6475 11.993
RightShoulder  7.45443e-017 -2.42657e-020 1.96277e-018
RightArm  -21.0257 -20.9674 77.5958
RightForeArm  30.2706 26.8679 4.15508
RightHand  -4.20122 24.8352 -16.3596
LeftUpLeg  -22.9481 1.81243 -5.23133
LeftLeg  45.1316 8.59932 9.5383
LeftFoot  -23.6987 -0.00778454 -1.38618
LeftToes  -14.805 1.06988e-006 1.21085e-007
3
root  20.3949 65.6874 47.6947 7.31779 1.15731 1.79575
RightUpLeg  -20.2427 4.21117 3.64667
RightLeg  44.9434 -8.8099 -9.60724
RightFoot  -30.1856 0.0781173 1.70726
RightToes  -0.900981 0.00326912 -0.00850711
Spine  -5.37032 0.2295 -1.07595
Spine1  3.85081 -0.0573865 4.73417
HEad  38.3916 -4.73766 -6.33116
LeftShoulder1  -7.76503e-019 -2.42657e-020 -1.34036e-021
LeftArm  -20.1215 19.0625 -76.0555
LeftForeArm  21.1999 -31.0074 -5.59695
LeftHand  3.8766 49.828 9.74098
RightShoulder  7.45443e-017 -2.42657e-020 1.96277e-018
RightArm  -23.414 -19.6235 75.0328
RightForeArm  30.601 26.9255 4.1502
RightHand  -4.37031 26.2723 -16.2364
LeftUpLeg  -23.9294 2.07406 -4.68823
LeftLeg  45.8839 7.64913 8.77073
LeftFoot  -23.7751 0.00492955 -1.26516
LeftToes  -15.76 1.06988e-006 1.21085e-007
4
root  20.2994 65.661 47.4196 7.26706 1.88191 1.64689
RightUpLeg  -20.7929 4.21908 4.08196
RightLeg  45.3156 -9.17504 -10.1083
RightFoot  -29.9491 0.0897436 1.79033
RightToes  -0.777275 0.00388473 -0.00734125
Spine  -4.47194 -0.290486 -0.821078
Spine1  3.69503 -0.209119 4.73384
HEad  37.0936 -5.27463 -6.2971
LeftShoulder1  -7.76503e-019 -2.42657e-020 -1.34036e-021
LeftArm  -22.3746 18.2804 -71.2288
LeftForeArm  19.9283 -31.1358 -5.70023
LeftHand  3.56685 50.3852 8.90097
RightShoulder  7.45443e-017 -2.42657e-020 1.96277e-018
RightArm  -24.5896 -18.3946 70.6137
RightForeArm  29.7476 26.5648 4.11696
RightHand  -4.28637 26.3428 -15.9033
LeftUpLeg  -24.5986 2.34257 -4.32998
LeftLeg  46.9625 7.11055 8.49754
LeftFoot  -24.4079 0.00767929 -1.21288
LeftToes  -12.819 1.06988e-006 1.21085e-007
5
root  20.2032 65.668 47.1594 7.24506 1.86926 1.42775
RightUpLeg  -21.4268 4.39451 4.49462
RightLeg  45.6326 -9.29126 -10.3394
RightFoot  -29.3802 0.0887062 1.81644
RightToes  -0.534969 0.00425108 -0.00505562
Spine  -3.68641 -0.168403 -0.574178
Spine1  3.73405 -0.180928 4.79501
HEad  36.5278 -5.79093 -6.27456
LeftShoulder1  -7.76503e-019 -2.42657e-020 -1.34036e-021
LeftArm  -24.4036 18.1166 -65.3586
LeftForeArm  17.7406 -31.718 -5.96821
LeftHand  4.12785 50.5798 10.1406
RightShoulder  7.45443e-017 -2.42657e-020 1.96277e-018
RightArm  -25.8274 -17.8011 64.6347
RightForeArm  29.7696 26.1066 4.01728
RightHand  -4.22048 24.8752 -16.4102
LeftUpLeg  -24.6324 3.04273 -4.09624
LeftLeg  48.2847 8.58418 10.5921
LeftFoot  -23.4041 -0.0179686 -1.49976
LeftToes  -8.7114 1.06988e-006 1.21085e-007
6
root  20.1404 65.7597 46.9378 7.38876 1.44214 1.289
RightUpLeg  -22.0844 4.17638 4.657
RightLeg  45.6181 -9.08249 -10.1162
RightFoot  -28.051 0.069314 1.76869
RightToes  -1.58621 0.00433147 -0.0149522
Spine  -3.20266 0.0215213 -0.528828
Spine1  4.03261 -0.135903 4.70833
HEad  36.3785 -6.17015 -5.74781
LeftShoulder1  -7.76503e-019 -2.42657e-020 -1.34036e-021
LeftArm  -26.7543 18.6739 -58.1767
LeftForeArm  15.5276 -32.1388 -6.20085
LeftHand  4.52544 50.3897 11.0975
RightShoulder  7.45443e-017 -2.42657e-020 1.96277e-018
RightArm  -27.0024 -18.1479 57.6813
RightForeArm  29.8952 25.7848 3.94201
RightHand  -4.6106 25.2122 -17.6678
LeftUpLeg  -24.4533 3.4801 -3.92809
LeftLeg  48.5604 8.93272 11.0951
LeftFoot  -21.6873 -0.0125875 -1.57631
LeftToes  -10.7709 1.06988e-006 1.21085e-007
7
root  20.1296 65.9419 46.7312 7.69938 1.23957 1.58364
RightUpLeg  -22.8213 3.93018 4.12608
RightLeg  45.3058 -8.57936 -9.48717
RightFoot  -26.6857 0.0432469 1.66494
RightToes  -1.04385 0.00408963 -0.00985272
Spine  -2.65768 0.111867 -0.979279
Spine1  4.47257 -0.131769 4.75975
HEad  35.6714 -6.57598 -5.3932
LeftShoulder1  -7.76503e-019 -2.42657e-020 -1.34036e-021
LeftArm  -28.9285 19.9609 -50.1648
LeftForeArm  13.9143 -32.338 -6.34451
LeftHand  4.86604 50.5304 11.8367
RightShoulder  7.45443e-017 -2.42657e-020 1.96277e-018
RightArm  -28.0381 -19.6607 49.5724
RightForeArm  28.8078 25.5294 3.94439
RightHand  -5.23901 25.1314 -20.0182
LeftUpLeg  -24.6068 2.74901 -4.08062
LeftLeg  47.6715 8.13265 9.86471
LeftFoot  -20.6194 0.00807297 -1.4248
LeftToes  -13.0246 1.06988e-006 1.21085e-007
8
root  20.1187 66.163 46.4216 8.15986 1.45916 1.61988
RightUpLeg  -23.8539 4.40784 3.93467
RightLeg  45.0855 -8.83475 -9.6796
RightFoot  -24.5955 0.0326582 1.716
RightToes  -1.83139 0.00348883 -0.0165773
Spine  -1.44842 0.00495079 -1.20306
Spine1  4.50621 -0.180539 4.79288
HEad  34.4622 -7.14607 -4.88064
LeftShoulder1  -7.76503e-019 -2.42657e-020 -1.34036e-021
LeftArm  -29.5253 22.563 -41.1439
LeftForeArm  11.7329 -33.0183 -6.64624
LeftHand  5.64736 51.4341 13.323
RightShoulder  7.45443e-017 -2.42657e-020 1.96277e-018
RightArm  -29.4488 -22.6967 40.9852
RightForeArm  26.8723 25.4731 4.03384
RightHand  -5.65146 25.3295 -21.3877
LeftUpLeg  -25.5219 2.72083 -3.73257
LeftLeg  46.7995 7.28976 8.64913
LeftFoot  -18.4693 0.0311189 -1.27867
LeftToes  -17.9347 1.06988e-006 1.21085e-007
9
root  20.1378 66.4131 45.9756 8.87065 1.82748 1.66507
RightUpLeg  -25.4887 4.45703 3.62725
RightLeg  44.9675 -8.84435 -9.65068
RightFoot  -22.5468 0.0164038 1.72409
RightToes  -2.27137 0.00249269 -0.021374
Spine  0.391267 -0.0752888 -1.34682
Spine1  4.53828 -0.231388 4.87106
HEad  32.7799 -8.13295 -4.52685
LeftShoulder1  -7.76503e-019 -2.42657e-020 -1.34036e-021
LeftArm  -29.1591 25.3548 -31.9734
LeftForeArm  9.59936 -32.6546 -6.67523
LeftHand  6.52414 52.3815 14.9295
RightShoulder  7.45443e-017 -2.42657e-020 1.96277e-018
RightArm  -30.7448 -27.1749 32.3237
RightForeArm  25.2458 25.6969 4.16766
RightHand  -6.04845 25.0575 -23.0195
LeftUpLeg  -27.0151 2.64518 -3.40393
LeftLeg  46.2772 5.86368 6.94023
LeftFoot  -16.156 0.0524594 -1.05674
LeftToes  -23.4951 1.06988e-006 1.21085e-007
10
root  20.1601 66.5753 45.387 9.7247 2.09237 1.68318
RightUpLeg  -27.7978 4.50838 3.28317
RightLeg  45.2168 -8.73459 -9.61899
RightFoot  -20.359 -0.00273038 1.71344
RightToes  -0.906895 0.00106471 -0.00856281
Spine  3.03677 0.280047 -1.22584
Spine1  4.99197 -0.154477 4.35909
HEad  29.858 -9.13114 -3.62857
LeftShoulder1  -7.76503e-019 -2.42657e-020 -1.34036e-021
LeftArm  -28.5059 27.8395 -23.4758
LeftForeArm  7.93792 -31.7886 -6.54731
LeftHand  8.25593 53.575 18.1523
RightShoulder  7.45443e-017 -2.42657e-020 1.96277e-018
RightArm  -33.2235 -32.9362 25.2351
RightForeArm  23.5453 25.7517 4.26988
RightHand  -6.08592 21.9815 -25.6712
LeftUpLeg  -29.0059 2.3821 -3.17886
LeftLeg  46.1954 4.75982 5.70865
LeftFoot  -14.0011 0.0630993 -0.899488
LeftToes  -25.8059 1.06988e-006 1.21085e-007
11
root  20.2066 66.6179 44.6729 10.848 2.27834 1.53079
RightUpLeg  -30.9119 3.29897 3.19319
RightLeg  45.9321 -7.86036 -8.925
RightFoot  -18.5289 -0.0277835 1.5547
RightToes  -0.456069 -0.000831702 -0.00431075
Spine  6.24833 0.294662 -0.77047
Spine1  5.61278 -0.193432 4.2248
HEad  25.1574 -9.69882 -3.31556
LeftShoulder1  -7.76503e-019 -2.42657e-020 -1.34036e-021
LeftArm  -30.3057 32.3029 -17.2977
LeftForeArm  9.28317 -29.8653 -5.99219
LeftHand  8.94101 54.4818 19.1774
RightShoulder  7.45443e-017 -2.42657e-020 1.96277e-018
RightArm  -35.3126 -38.9495 19.2803
RightForeArm  21.0627 25.6291 4.37599
RightHand  -6.49623 20.3871 -28.9289
LeftUpLeg  -31.9346 2.41713 -3.10567
LeftLeg  46.7645 4.05168 5.02184
LeftFoot  -11.9695 0.0673618 -0.813955
LeftToes  -28.7557 1.06988e-006 1.21085e-007
